<svg width="15" height="13" viewBox="0 0 15 13" fill="none" xmlns="http://www.w3.org/2000/svg">
<path d="M12.5001 0.625C13.5328 0.625 14.3751 1.46732 14.3751 2.5V10C14.3751 11.0327 13.5328 11.875 12.5001 11.875H2.50012C1.46744 11.875 0.625122 11.0327 0.625122 10V2.5C0.625122 1.46732 1.46744 0.625 2.50012 0.625H12.5001Z" stroke="white" stroke-width="1.25" stroke-linecap="round" stroke-linejoin="round"/>
<mask id="path-2-outside-1_10_6" maskUnits="userSpaceOnUse" x="-0.749878" y="0.5" width="16" height="8" fill="black">
<rect fill="white" x="-0.749878" y="0.5" width="16" height="8"/>
<path d="M13.7501 2.5L7.50012 6.875L1.25012 2.5"/>
</mask>
<path d="M14.467 3.52404C15.0325 3.12815 15.1701 2.34873 14.7742 1.78317C14.3783 1.21761 13.5989 1.08007 13.0333 1.47596L13.7501 2.5L14.467 3.52404ZM7.50012 6.875L6.78329 7.89904C7.21369 8.20032 7.78655 8.20032 8.21695 7.89904L7.50012 6.875ZM1.96695 1.47596C1.40139 1.08007 0.621975 1.21761 0.226082 1.78317C-0.169811 2.34873 -0.0322675 3.12815 0.533294 3.52404L1.25012 2.5L1.96695 1.47596ZM13.7501 2.5L13.0333 1.47596L6.78329 5.85096L7.50012 6.875L8.21695 7.89904L14.467 3.52404L13.7501 2.5ZM7.50012 6.875L8.21695 5.85096L1.96695 1.47596L1.25012 2.5L0.533294 3.52404L6.78329 7.89904L7.50012 6.875Z" fill="white" mask="url(#path-2-outside-1_10_6)"/>
</svg>
