<svg width="16" height="15" viewBox="0 0 16 15" fill="none" xmlns="http://www.w3.org/2000/svg">
<path d="M9.44397 2.72021H14.884" stroke="white" stroke-width="1.36" stroke-linecap="round" stroke-linejoin="round"/>
<path d="M14.204 10.8258V12.8658C14.2047 13.0552 14.1659 13.2427 14.0901 13.4162C14.0142 13.5897 13.9029 13.7455 13.7634 13.8735C13.6238 14.0015 13.4591 14.099 13.2797 14.1597C13.1003 14.2204 12.9102 14.2429 12.7216 14.2258C10.6291 13.9985 8.61913 13.2835 6.85317 12.1382C5.21018 11.0942 3.8172 9.70124 2.77317 8.05824C1.62396 6.28426 0.908778 4.26452 0.685573 2.16264C0.66858 1.9746 0.690928 1.78508 0.751193 1.60615C0.811459 1.42721 0.908321 1.26279 1.03561 1.12334C1.16291 0.983898 1.31784 0.872484 1.49055 0.796197C1.66326 0.719909 1.84996 0.68042 2.03877 0.680242H4.07877C4.40878 0.676994 4.72871 0.793855 4.97893 1.00904C5.22915 1.22423 5.39259 1.52307 5.43877 1.84984C5.52488 2.50269 5.68456 3.1437 5.91477 3.76064C6.00626 4.00403 6.02606 4.26854 5.97183 4.52284C5.9176 4.77714 5.7916 5.01056 5.60877 5.19544L4.74517 6.05904C5.71319 7.76145 7.12276 9.17102 8.82517 10.139L9.68877 9.27544C9.87366 9.09262 10.1071 8.96662 10.3614 8.91239C10.6157 8.85815 10.8802 8.87795 11.1236 8.96944C11.7405 9.19966 12.3815 9.35934 13.0344 9.44544C13.3647 9.49204 13.6664 9.65842 13.882 9.91294C14.0977 10.1675 14.2122 10.4924 14.204 10.8258Z" stroke="white" stroke-width="1.36" stroke-linecap="round" stroke-linejoin="round"/>
</svg>
