<svg width="16" height="16" viewBox="0 0 19 16" fill="none" xmlns="http://www.w3.org/2000/svg">
<path d="M9.44397 3.40039H14.884" stroke="white" stroke-width="1.36" stroke-linecap="round" stroke-linejoin="round"/>
<path d="M14.204 11.506V13.546C14.2047 13.7354 14.1659 13.9229 14.0901 14.0964C14.0142 14.2699 13.9029 14.4257 13.7634 14.5537C13.6238 14.6817 13.4591 14.7792 13.2797 14.8399C13.1003 14.9005 12.9102 14.9231 12.7216 14.906C10.6291 14.6787 8.61913 13.9636 6.85317 12.8184C5.21018 11.7744 3.8172 10.3814 2.77317 8.73842C1.62396 6.96444 0.908778 4.94469 0.685573 2.84282C0.66858 2.65478 0.690928 2.46525 0.751193 2.28632C0.811459 2.10739 0.908321 1.94297 1.03561 1.80352C1.16291 1.66407 1.31784 1.55266 1.49055 1.47637C1.66326 1.40009 1.84996 1.3606 2.03877 1.36042H4.07877C4.40878 1.35717 4.72871 1.47403 4.97893 1.68922C5.22915 1.90441 5.39259 2.20324 5.43877 2.53002C5.52488 3.18286 5.68456 3.82387 5.91477 4.44082C6.00626 4.68421 6.02606 4.94872 5.97183 5.20302C5.9176 5.45731 5.7916 5.69073 5.60877 5.87562L4.74517 6.73922C5.71319 8.44163 7.12276 9.8512 8.82517 10.8192L9.68877 9.95562C9.87366 9.77279 10.1071 9.6468 10.3614 9.59256C10.6157 9.53833 10.8802 9.55813 11.1236 9.64962C11.7405 9.87983 12.3815 10.0395 13.0344 10.1256C13.3647 10.1722 13.6664 10.3386 13.882 10.5931C14.0977 10.8476 14.2122 11.1725 14.204 11.506Z" stroke="white" stroke-width="1.36" stroke-linecap="round" stroke-linejoin="round"/>
<path d="M14.9601 0.680176L17.6801 3.40018L14.9601 6.12018" stroke="white" stroke-width="1.36" stroke-linecap="round" stroke-linejoin="round"/>
</svg>
